<?xml version="1.0" encoding="UTF-8" standalone="no"?>
<svg
   viewBox="0 0 24 24"
   version="1.1"
   id="svg1"
   sodipodi:docname="shield-airplane-white.svg"
   inkscape:version="1.4.2 (f4327f4, 2025-05-13)"
   xmlns:inkscape="http://www.inkscape.org/namespaces/inkscape"
   xmlns:sodipodi="http://sodipodi.sourceforge.net/DTD/sodipodi-0.dtd"
   xmlns="http://www.w3.org/2000/svg"
   xmlns:svg="http://www.w3.org/2000/svg">
  <defs
     id="defs1" />
  <sodipodi:namedview
     id="namedview1"
     pagecolor="#ffffff"
     bordercolor="#000000"
     borderopacity="0.25"
     inkscape:showpageshadow="2"
     inkscape:pageopacity="0.0"
     inkscape:pagecheckerboard="true"
     inkscape:deskcolor="#d1d1d1"
     inkscape:zoom="35.458333"
     inkscape:cx="11.985899"
     inkscape:cy="12"
     inkscape:window-width="1920"
     inkscape:window-height="1111"
     inkscape:window-x="-9"
     inkscape:window-y="2175"
     inkscape:window-maximized="1"
     inkscape:current-layer="svg1" />
  <path
     d="M21,11C21,16.55 17.16,21.74 12,23C6.84,21.74 3,16.55 3,11V5L12,1L21,5V11M12,21C15.75,20 19,15.54 19,11.22V6.3L12,3.18L5,6.3V11.22C5,15.54 8.25,20 12,21M12,5.68C12.5,5.68 12.95,6.11 12.95,6.63V10.11L18,13.26V14.53L12.95,12.95V16.42L14.21,17.37V18.32L12,17.68L9.79,18.32V17.37L11.05,16.42V12.95L6,14.53V13.26L11.05,10.11V6.63C11.05,6.11 11.5,5.68 12,5.68Z"
     id="path1"
     style="fill:#ffffff;fill-opacity:1" />
</svg>
